<svg xmlns="http://www.w3.org/2000/svg" width="400" height="400" version="1.0" viewBox="0 0 300 300">
    <path d="M163.5 25.5c-36.2 9.4-52.7 22.1-57.9 44.4-.8 3.3-1.7 6.4-2 7-.4.5-5 3.3-10.4 6.2C78.4 91 74.5 93.7 72.5 97.4c-1.7 3.2-1.8 3.6-.2 6 2.7 4.1 5.3 4.9 13.1 4.3 3.9-.4 8.3-.9 9.7-1.3l2.6-.6-.4 6.2c-.3 4.5-.1 6.6 1 7.8.8.9 1.8 2.8 2.2 4.2.4 1.4 1.7 3.8 2.9 5.5 1.2 1.6 2.8 4.9 3.6 7.3 1.6 5 7.4 10.7 12 11.7 4.1.9 3.2 1.7-2.7 2.2-17.9 1.6-35.9 13-47.2 29.8-5.7 8.6-8.6 15.8-10.6 26.4-2.9 14.9-1.6 22.8 4.6 29.6l4 4.3-13 27.1c-14.2 29.4-15.4 32.5-12.6 31.9 1.3-.2 6.5-9.9 17.2-32.2 8.4-17.5 15.3-31.9 15.3-32 0-.2-1.4-.1-3.1.2-5.9.9-9.9-5.7-9.9-16.5 0-28.1 20.5-56 46.1-62.8 6.5-1.8 20.1-1.8 24.9-.2 3.1 1.1 3.5 1.6 3.2 4.2-.2 1.7-.5 3.1-.5 3.2-.1.1-2.9-.6-6.1-1.4-10.6-2.7-23.7 1-24.4 6.8-1.1 9 48.1 36.4 75.3 42 5 1 10.4 1.9 12 1.9h3l-.1-9.7c-.2-9.4-.3-9.8-2.6-10.4-1.3-.3-6.8-2.9-12.3-5.7-5.5-2.8-12.7-6.1-15.9-7.3-9.8-3.6-18.1-12.6-20.1-21.8-.7-3.2-.8-3.4-2.1-1.6-1.5 2.1-1 5.3 1.7 10.5 4 7.6 11.4 13.9 20 16.9 3 1 10.1 4.4 15.9 7.4l10.5 5.5.3 5.1c.2 4 0 5.3-1.4 5.8-4.5 1.7-25.3-4.7-42.9-13.3-12.5-6.1-25.5-14.2-25.5-16 0-1.8 5.8-4.4 9.9-4.4 3.8 0 7.3-3 7.7-6.6.2-1.6.7-4.5 1-6.5.5-3.1.2-3.9-2.6-6.2-1.7-1.5-4.9-3-7.1-3.3-4.4-.7-6.3-2.4-2.6-2.4 3.5 0 6.4-3.8 7-9.3.3-3.1 1.3-5.7 2.8-7.3 1.7-1.8 2.4-3.9 2.7-8.4.5-6.5 1.3-7.7 5.7-8.2 2.8-.3 3.1 0 5 6 4 12.6 11.3 17.4 26.4 17.4 10.3 0 18.2-4.2 21.1-11.3.7-1.6 1.5-2.9 1.9-2.9.4 0 2.4 2.1 4.5 4.6 2.5 3 5.8 5.5 9.4 7.1l5.5 2.4-.6 7.2c-.4 5.1-1.5 9.5-4 15.2-1.9 4.4-4 9.8-4.7 12-.7 2.2-2.1 5.6-3.1 7.6-3.6 7.1-11.3 7.1-24.5 0-3.9-2.1-9.7-4.8-13-6-7.5-2.9-11.4-5.8-16.7-12.9-7.1-9.6-9.5-10.5-5.3-1.9 3.5 7.3 11.7 14.8 18.8 17.5 3.2 1.2 10.2 4.4 15.7 7.2 12.6 6.3 18.9 7.3 24.1 3.8 2.9-2 4-3.8 6.6-11.3 1.6-5 4.4-12.2 6.2-16.1 2.2-5.1 3.3-9.3 3.7-14.5.3-4.1.8-8.6 1-10.2.4-2.5.2-2.7-3.1-2.7-7.5 0-14.2-5.2-16.5-13-1.2-3.9-4.3-6.2-5.8-4.3-.4.4-1.5 3.4-2.4 6.5-2 6.5-5.8 10.4-11.3 11.4-6.2 1.2-18.8-.1-22.5-2.2-3.8-2.2-7.9-9.3-7.9-13.6 0-1.5-.4-2.8-1-2.8-.5 0-1-1.4-1-3 0-1.7-.2-3-.5-3-2.3 0-14.2 3.6-14.7 4.4-.4.6-.8 4.6-.8 8.8 0 8.1-1.2 10-3.1 5-2.7-7.4-5.1-11-8.4-12.8-3.4-1.8-3.5-1.8-6.2.2-2.2 1.7-2.9 3-3.1 6.5-.4 7.6 7.8 18.9 13.9 18.9 2.2 0 3.2 2.7 1.3 3.4-3.7 1.4-9.9.5-14.3-2.1-3.3-1.9-4.1-2.8-2.9-3.1 1.5-.3 1.3-.7-1-2.7-2.2-2-2.4-2.4-.9-2.5 2.6 0 2.1-1.2-2.3-5.5-4.6-4.5-4.8-5.1-2-6 3.1-1 2.4-2-2.5-3.3-2.5-.7-4.5-1.6-4.5-2.2 0-.5.7-.7 1.5-.4.8.3 2 .2 2.6-.2.9-.5.5-1-1.2-1.8l-2.4-1 3-.4c3.9-.5 5.8-2.2 2.4-2.2-1.3 0-3-.4-3.8-.9-1.1-.7-.8-1.2 1.2-2.5 2.4-1.6 6.4-9.3 5.3-10.3-.2-.3-1.4.1-2.6.7-9.2 4.9-25.9 7.7-28.8 4.8-3.5-3.5-.8-5.8 19.1-16.3l12.4-6.5.6-4.8c1.4-12 9-24.5 18.7-31 10.2-6.9 33.5-15.1 48.6-17.3 12.5-1.7 23.9 1.8 39.7 12.4 5.4 3.7 6.9 4.3 7.4 3.1.9-2.4 6 3.1 6.8 7.2l.6 3.5 1.9-2.3c2.4-2.9 2.4-2.7 0 5-3.1 10-2.8 11.6 4.6 23.3 3.6 5.7 7.3 11.2 8.2 12.1 1.4 1.7 1.3 1.8-.9 1.8-1.8 0-3.3 1.5-6.4 6.2-2.7 4.2-4.1 5.7-4.3 4.5-.2-1-.8-1.5-1.3-1.2-1.5 1-1 2.1 1.5 3.3 2.7 1.2 4.5 6.7 2.7 8.5-.6.6-1.1 2.6-1.1 4.4 0 4.8-2.3 9.6-5.9 12.4-3 2.3-3.2 2.9-4.1 12.4-1 10.6-2.2 15-6.4 23.2-1.4 2.8-3.4 8.4-4.5 12.5-1.1 4-2.3 8.1-2.7 9.1-.3.9-.2 1.7.4 1.7.6 0 2.4 1.4 4.1 3.1 2.2 2.2 3.1 4 3.1 6.3 0 4-4.4 10.5-9.7 14-4.7 3.3-2.6 3.3 5.1.1 3.3-1.3 6-2.3 6.1-2.2.1.1 4.3 11 9.4 24.2 22.4 57.6 25.3 64.5 26.8 64.5 1.2 0 1.4-.7 1-2.9-1.1-5.1-32.6-84.4-34.7-87.4-1.9-2.4-2-3.2-1-6.3 1.5-4.5.6-7.9-3.1-12.6l-3-3.8 1.6-6.2c.9-3.5 3.5-10.3 5.7-15.3 3.4-7.3 4.4-10.8 5.3-19.2 1.1-9.4 1.5-10.7 4.2-13.6 1.7-1.8 3.5-4.1 4-5.2 1.9-3.7 3.5-15.4 2.9-19.8-.6-4.2-.4-4.7 3.9-9.4 2.5-2.8 4.5-5.8 4.5-6.8 0-.9-3.1-6.6-7-12.6-3.8-6.1-7-12.1-7-13.4 0-1.3.5-4.6 1.1-7.3 1.6-6.6.8-9-4.9-15.1-3.8-4-5.5-5.1-7.9-5.1-1.8 0-3.5-.4-3.8-1-1.1-1.8-15-9.4-21.5-11.7-8.9-3.1-21.2-3.1-33.5.2zm-39.6 96.1c2.8 3.5 2.6 5.8-.3 7.2-2.8 1.3-4 .3-5.1-4.1-.7-2.6.7-5.7 2.5-5.7.5 0 1.8 1.2 2.9 2.6zm6.1 10.9c1.9 2.3.3 5.5-3 5.5-3 0-4.4-2.1-3.5-5.1.8-2.3 4.7-2.5 6.5-.4zm1.4 33.4c4.5 1.8 3.3 4.1-2.2 4.1-5.4 0-11.2 2.7-12.7 5.8-.5 1.2-1.2 2.2-1.5 2.2-1.2 0-8-7-8-8.2 0-1.6 3.5-3.9 7.5-4.9 3.6-1 13.2-.4 16.9 1z"/><path d="M125.6 132.7c-.3.4-.6 1.5-.6 2.5 0 2.4 3.3 2.1 3.8-.3.3-1.7-2.1-3.3-3.2-2.2zM164.3 32.5c-11.3 2.9-28.2 9.6-34.5 13.6-2.6 1.7-6.2 4.7-7.9 6.7-4.6 5.2-9.9 17-10.6 23.6l-.6 5.5-14.4 7.7c-8 4.3-15.5 8.6-16.7 9.5-2.1 1.8-2 1.8 3.2 1.9 4 0 9.1-1.5 22.6-6.5 27.4-10.2 43.2-13.7 70.6-15.6 14.6-1.1 37.4-.7 48.5.7l5 .6-.3-6c-.3-5.3-.7-6.1-2.6-6.6-5.1-1.3-24.9-1.7-36-.8-12.9 1.1-14.1.9-15.7-1.9-1.6-3.1 1.6-7.6 8.4-12 8.3-5.4 15.3-7.4 26-7.4h8.8l-2.6-2c-4.9-4-13.6-8.8-20.1-11.1-8.6-3.2-18.7-3.1-31.1.1zm33.1 4.8c3.2 1.5 5.7 3 5.3 3.3-.3.3-3.1 1.2-6.3 2.1-17.9 4.6-29.8 17.3-23.6 24.9 2.7 3.4 5.3 4.2 11.7 3.7 9.9-.8 34.8-.8 37.8 0 1.6.4 2.7 1.3 2.5 1.9-.3.8-8.3 1.2-27.4 1.3-14.8.1-29.9.5-33.5 1l-6.6.8-2.1-3.7c-2.4-4.1-4-4.4-15.1-2.5-10.6 1.8-14 4.6-12.9 10.4.3 1.7-2.4 2.9-15.3 7l-2.2.7 2.1-2.9c1.1-1.5 2.5-5.5 3.1-8.8 1.5-8.3 6-17.2 11.1-22.3 6.5-6.4 23.6-14 42.5-18.7 9.3-2.3 21.6-1.5 28.9 1.8zm-44.9 36.8c.4 1.2.3 2.4-.2 2.8-.4.4-5.3 1.5-10.7 2.5-8 1.3-10.1 1.4-10.8.4-1.3-2.2-.9-3.5 1.5-4.2 3.3-.9 3.6-.8 3.2 1.4-.2 1.2.2 2 1 2 .9 0 1.2-.8.9-2.4-.4-2.3 0-2.5 4.3-3.1 2.7-.3 5.5-.8 6.3-.9 3.2-.7 3.9-.5 4.5 1.5z"/><path d="M163.3 83.7c-2.7.3-4.3.9-4.3 1.8 0 2.2-3.9 13.9-5.2 15.8-.7.9-4.7 2.6-8.8 3.8-6.7 1.8-8.9 3.1-9 5 0 .3 4.6-.6 10.3-2.1 16.7-4.5 21.6-5.3 33.8-5.4 13-.1 15.2.8 16.4 6.5.8 3.5 4.5 4.2 4.5.8 0-3.3 1.7-5.6 5.1-6.8 3.9-1.3 11.9-1.4 17.4-.1 2.2.5 4 .8 4.1.7 0-.1-.2-2.6-.5-5.6l-.6-5.3-6-2.3c-3.3-1.2-6.9-2.5-8-2.9-1.9-.7-1.9-.6-.1.6 1 .7 2.8 2.1 4 3.1 2.1 1.7 2.1 1.7-.5.8-1.4-.5-11-2.8-21.3-5-17.7-3.9-21.3-4.3-31.3-3.4zm29.6 7.3c10 2.2 20.6 4 23.6 4 4 0 5.5.4 5.5 1.4 0 1-2.3 1.5-8.4 1.8-6.4.4-9.2 1.1-11.4 2.7-3.7 2.6-3.6 2.6-7 .1-3.6-2.7-13.1-3.5-25.1-2.1-5.2.6-9.8.8-10.2.5-.4-.2 0-2.8 1-5.7 1.6-4.6 2.1-5.3 5.2-5.8 6.3-1.2 8.5-.9 26.8 3.1z"/><path d="M167.2 107.1c-8 1.5-9.7 2.9-10 7.9-.4 6.4 1.8 12.1 5.7 14.3 4.7 2.8 17.5 3.4 22.1 1 4.3-2.2 7-7.7 7.8-15.5.7-8.3 0-8.8-11.7-8.7-5.3.1-11.5.5-13.9 1zm21.6 6.3c.5 4.5-2.5 11.4-5.8 13.1-6.3 3.2-18.1 1.2-20.5-3.5-1.9-3.6-1.9-8.4-.1-9.9 2.2-1.8 9.4-2.9 18.1-2.8l8 .2.3 2.9zM205.6 107.6c-2 2-2 2.9.4 10.6 2.6 8.5 7.5 12.8 14.5 12.8 2.2 0 2.3-.4 2.6-7.9.3-6.6.8-8.4 2.7-10.3 4.8-5.2 2.1-6.8-11.4-6.8-5.3 0-7.7.4-8.8 1.6zm15 5.1c-.3 1.6-.9 5-1.2 7.6-.4 3-1.3 5.1-2.2 5.5-2.1.8-6.9-4.9-7.8-9.2-1-5.7-.2-6.6 6.2-6.6 5.6 0 5.6 0 5 2.7zM228.5 113.8c-1.3 1.8-2 4.6-2.3 9.2l-.3 6.5 2.4-2.7c2.7-2.9 4.5-11.5 3-14.1-.6-1.2-1.2-1-2.8 1.1zM96 194.7c0 2.3 8.5 8.7 17 12.7 23 10.9 52.2 16.9 67 13.8 4.5-1 4.4-1-2.8-1.1-25.6-.4-61.2-11.2-77.9-23.8-1.8-1.3-3.3-2-3.3-1.6z"/><path d="M152.7 225.1c-.5 1.7-1.1 2-3 1.5-2.3-.5-2.5-.2-3.6 5.1-1.3 6.5-.9 7.5 1.5 3.8 2.9-4.4 4.4-4.6 13.2-2l8 2.5 1.6 4.7c.9 2.6 1.6 4.8 1.6 5 0 1.3-5.4-.4-16.8-5.4-.8-.3-.5 1.1.8 4.2 2.1 5 2.6 12.4 1.1 18.7-1.1 4.7.1 4.9 2.8.5 2.6-4.2 10.7-12.1 11.4-11 .2.4.8 4.7 1.2 9.4l.7 8.7-5.9 6.8-6 6.9h15.4c8.5 0 14.6-.2 13.6-.6-7.9-2.8-11.7-4.6-12.6-6-1.1-1.7 1.1-13.9 2.5-13.9.4 0 4.1 2.6 8.3 5.7 4.8 3.7 7.5 6.5 7.6 7.8 0 1.1 1.3 3 2.9 4.3l2.8 2.2 1.5-2.8c.8-1.7 1.1-3.7.6-4.8-.5-1.4.5-3.9 3.2-8.4 2.1-3.6 4.2-6.6 4.6-6.7 1.3-.4 8.2 10.9 7.6 12.4-.3.8-2.6 3-5.1 4.9-5.4 4.1-4.4 4.3 3.4.7 3.3-1.5 8.1-3 10.8-3.3l5-.5-7.1-5.1c-6.8-5-7.1-5.4-9.6-12.8-1.5-4.5-2.1-7.6-1.5-7.6.6 0 4.2 2.5 7.9 5.5 3.8 3.1 6.9 5.4 6.9 5.2 0-.3-1.5-3-3.4-6.2-2.3-3.7-3.7-7.6-4.2-11.2l-.6-5.4-2.7 2.4c-1.4 1.4-3.6 3-4.9 3.6-2 1.1-2.3.9-3.2-1.4-2.1-5.4-1.4-7.1 4-9.3l5-2.1 2.9 2.5c4.1 3.5 4.6 3 1.7-1.9-1.4-2.3-3.3-4.2-4.2-4.2-.8 0-2.2-.9-3-1.9-1.5-2.2-1.5-2.2-3.2 1.7-1.7 3.9-9.2 7-14.7 6.1l-4-.7 4.3 4.7c2.4 2.6 4.2 5 3.9 5.2-.7.7-9-5.3-10.1-7.3-.5-1-.4-1.8.3-2.2.7-.5 0-1.7-2-3.5l-3.2-2.8-2.4 3c-1.7 2.3-3.5 3.3-6.8 3.7-5.9.9-16.5-2.6-21.5-7.1-4.4-4-4.6-4-5.3-1.3zm34.3 10c0 2-4.7 7.9-6.2 7.9-1.4 0-.8-3.5 1.2-6.8 2.2-3.6 5-4.3 5-1.1zm6.3 5.7c1.3 1.4 1.4 2.1.5 3-.9.9-1.6.8-3-.5-2.1-1.9-2.4-4.3-.5-4.3.8 0 2.1.8 3 1.8zm-13.3 9.5c-1.1 2.8-1 3.8.4 6.5 1.6 3.2 1.6 3.3-.6 4.1-3.1 1.2-3.4.8-4.1-4-.3-2.2-1.2-4.8-2.1-5.8-1.4-1.5-1.4-2-.1-3.7.8-1 1.5-3 1.5-4.3 0-2.5 0-2.5 3.1.7 2.9 2.9 3 3.3 1.9 6.5zm29-4.8c3.1 3.3 3.6 10.6.9 13.1-1.7 1.5-1.9 1.5-1.9.1 0-.9.4-2.7.9-4 .8-2 .4-3.1-2-6.1-1.7-1.9-2.7-4-2.4-4.6 1-1.5 1.9-1.2 4.5 1.5zm-3.2 7.4c-.2.3-1.2 3-2.3 5.8-1.1 2.9-2.2 5.3-2.5 5.3-.3 0-1.3-3.5-2.3-7.8-.9-4.2-2-8.8-2.4-10.2-.6-2.2-.1-2 4.6 2 2.8 2.4 5 4.6 4.9 4.9zm-15.8-5.7c0 1.3.9 5.8 1.9 10 1 4.3 1.6 7.8 1.4 7.8-.2 0-2.8-2.6-5.7-5.7l-5.4-5.8 3.1-4.2c3.4-4.8 4.7-5.4 4.7-2.1zm-24 2.9c0 1.2-2.9 2.4-3.7 1.6-.3-.4-.3-1.3 0-2.1.6-1.6 3.7-1.1 3.7.5zm33.9 15.8c2.3 1.7 2.3 2.1 1.1 5l-1.3 3.2-3.3-3.2c-3.2-3.1-3.3-3.4-1.7-5.1 2-2.2 2.2-2.2 5.2.1z"/>
    <style>
        path { fill: #000; }
        @media (prefers-color-scheme: dark) {
            path { fill: #FFF; }
        }
    </style>
</svg>